<svg version="1.2" xmlns="http://www.w3.org/2000/svg" viewBox="0 0 418 74" width="418" height="74">
	<title>Blue Modern Logistics Logo Design</title>
	<defs>
		<clipPath clipPathUnits="userSpaceOnUse" id="cp1">
			<path d="m3 1.45h58.67v71.22h-58.67z"/>
		</clipPath>
	</defs>
	<style>
		.s0 { fill: #3882fa } 
		.s1 { fill: #f1f1f1 } 
	</style>
	<g id="Clip-Path" clip-path="url(#cp1)">
		<g>
			<path fill-rule="evenodd" class="s0" d="m8.9 70.9q0.1 0.1 0.3 0.1 0.2 0.2 0.4 0.3c2.4 1.2 5 1.6 7.5 1.2 2.2-0.3 4.3-1.3 6-2.7l2.1-2.4q0 0 0 0l0.7-0.7 1.9-2.2 5.5-6.1q0 0 0 0l1.1-1.2 1.3-1.5 5.1-5.7 0.1-0.2 1.1-1.1 7.6-8.5q-2.3-1.2-4.7-2.3-0.3-0.1-0.6-0.3l-4.5-1.8q-0.1-0.1-0.2-0.1-0.1 0-0.2-0.1-0.4-0.1-0.7-0.2-0.1-0.1-0.2-0.2-0.4-0.4-0.5-0.9c-0.2-0.5 0-1.1 0.4-1.6 0.3-0.3 0.8-0.5 1.3-0.5h0.3l1 0.1 0.9 0.1 0.2 0.1 1.7 0.1 0.7 0.1 3.5 0.4 1.3-1.5 0.9-0.9 1.6 1.5-1.1 1.2 0.6 0.1 3.9 0.4 1.3 0.2q0.2-0.2 0.3-0.3 1-0.9 1.8-1.7 0.4-0.3 0.8-0.6 0-0.1 0-0.1c1.3-1.1 2.2-2.8 2.2-4.8q0-1.3-0.6-2.5 0-0.1 0-0.2 0 0-0.1 0l-0.3-0.7-0.4-0.6-1.3-2.3-2.2-3.9q0 0 0 0l-1.1-1.8-0.1-0.1-0.2-0.5-0.9-1.5-2.2-3.7-1.3-2.4c-2.1-2.9-5.5-4.7-9.2-4.9-3.8 0.2-7.1 2-9.2 4.9l-1.4 2.4-3 5.2-0.9 1.6-3.3 5.7-0.8 1.3-18.4 31.9c-3.3 5.7-1.4 13 4.2 16.4z"/>
		</g>
	</g>
	<path fill-rule="evenodd" class="s1" d="m48.4 53.2c0 1.2 0.4 2.3 1 3.2q0.1 0.1 0.2 0.2l8.7 11.1q0.3 0.3 0.5 0.7c2.8 3.3 7.2 4.8 11.4 4.1 1.3-0.2 2.7-0.7 4-1.5 5.8-3.3 7.8-10.7 4.4-16.5l-9.6-16.8-0.9-1.5-1-1.6-0.1-0.3q-0.1-0.1-0.1-0.1c-0.5-0.7-1.4-1.2-2.3-1.2-0.9 0-1.8 0.4-2.3 1.1q0 0.1-0.1 0.1 0 0 0 0.1-0.2 0.3-0.5 0.6-0.7 1-1.5 2-0.1 0.1-0.3 0.3l0.2 0.8 0.9 4.3 0.2 0.9v0.1l1.2-1.3 0.3 0.2 1.3 1.3-2.2 2.4-0.1-0.1 0.6 2.8 0.1 0.4 0.5 2.6 0.2 0.9v0.2l0.2 0.8 0.1 0.3c0 0.5-0.1 1-0.5 1.4-0.4 0.4-1 0.6-1.5 0.5q-0.2 0-0.3 0-0.3-0.2-0.6-0.4-0.1-0.1-0.2-0.2-0.2-0.4-0.3-0.7-0.1-0.1-0.1-0.2-0.1-0.1-0.1-0.2l-1.1-2-1.2-2.3q-0.3-0.6-0.6-1.1-1-1.7-2-3.3l3-4.4-1.4 1.3-5.4 6-1.1 1.2-0.5 0.6c-0.7 0.9-1.1 2-1.1 3.2z"/>
	<g>
		<g>
			<g>
				<path class="s0" d="m85.7 31.6l9.5-24.3h7l9.4 24.3h-7.5l-1.3-3.4h-8.3l-1.3 3.4zm10.2-8.6h5.4l-2.7-7.5z"/>
			</g>
		</g>
	</g>
	<g>
		<g>
			<g>
				<path class="s0" d="m114.3 31.6v-24.3h5.8l9.2 12.3v-12.3h6.9v24.3h-5.7l-9.2-12.4v12.4z"/>
			</g>
		</g>
	</g>
	<g>
		<g>
			<g>
				<path class="s0" d="m139 31.6l9.5-24.3h6.9l9.5 24.3h-7.5l-1.3-3.4h-8.3l-1.4 3.4zm10.3-8.6h5.4l-2.7-7.5z"/>
			</g>
		</g>
	</g>
	<g>
		<g>
			<g>
				<path class="s0" d="m167.6 31.6v-24.3h5.8l9.2 12.3v-12.3h6.9v24.3h-5.7l-9.2-12.4v12.4z"/>
			</g>
		</g>
	</g>
	<g>
		<g>
			<g>
				<path class="s0" d="m200.5 31.6v-17.8h-7.4v-6.5h21.8v6.5h-7.4v17.8z"/>
			</g>
		</g>
	</g>
	<g>
		<g>
			<g>
				<path class="s0" d="m232.9 31.6v-9.1h-7.5v9.1h-7v-24.3h7v8.7h7.5v-8.7h7.1v24.3z"/>
			</g>
		</g>
	</g>
	<g>
		<g>
			<g>
				<path class="s1" d="m245.1 31.6v-24.3h10.3q3.9 0 6.9 1.5 2.9 1.5 4.5 4.3 1.7 2.7 1.7 6.4 0 3.6-1.7 6.3-1.6 2.8-4.5 4.3-3 1.5-6.9 1.5zm7.1-6.3h3.1q2.7 0 4.4-1.6 1.7-1.6 1.7-4.2 0-2.7-1.7-4.3-1.7-1.6-4.4-1.6h-3.1z"/>
			</g>
		</g>
	</g>
	<g>
		<g>
			<g>
				<path class="s1" d="m272.2 31.6v-24.3h16.7v5.7h-9.7v3.5h8.8v5.6h-8.8v3.8h10.1v5.7z"/>
			</g>
		</g>
	</g>
	<g>
		<g>
			<g>
				<path class="s1" d="m304.8 32.1q-3.8 0-6.7-1.5-2.8-1.6-4.4-4.5-1.6-2.9-1.6-6.6 0-3.8 1.5-6.7 1.6-2.8 4.5-4.4 2.9-1.6 6.6-1.6 3.3 0 5.9 1.2 2.7 1.3 4.5 3.5 1.8 2.3 2.4 5.4h-7.1q-0.6-1.7-2-2.6-1.5-1-3.4-1-1.7 0-3 0.8-1.3 0.7-2.1 2.1-0.7 1.4-0.7 3.3 0 1.8 0.7 3.2 0.7 1.4 2 2.2 1.3 0.7 3.1 0.7 1.9 0 3.4-1 1.4-1 2.1-2.7h7.1q-0.5 3.1-2.3 5.4-1.7 2.3-4.4 3.6-2.7 1.2-6.1 1.2z"/>
			</g>
		</g>
	</g>
	<g>
		<g>
			<g>
				<path class="s1" d="m333.2 32.1q-3 0-5.4-0.9-2.4-0.9-4.2-2.6-1.7-1.7-2.7-4-1-2.4-1-5.1 0-2.8 1-5.2 1-2.3 2.7-4 1.8-1.7 4.2-2.6 2.4-0.9 5.4-0.9 2.9 0 5.3 0.9 2.4 0.9 4.2 2.6 1.7 1.7 2.7 4 1 2.4 1 5.2 0 2.7-1 5.1-1 2.3-2.7 4-1.8 1.7-4.2 2.6-2.4 0.9-5.3 0.9zm-6.1-12.6q0 1.8 0.7 3.2 0.8 1.4 2.2 2.2 1.4 0.7 3.2 0.7 1.8 0 3.1-0.7 1.4-0.8 2.2-2.2 0.8-1.4 0.8-3.2 0-1.9-0.8-3.3-0.8-1.4-2.2-2.1-1.3-0.8-3.1-0.8-1.8 0-3.2 0.8-1.4 0.7-2.2 2.1-0.7 1.4-0.7 3.3z"/>
			</g>
		</g>
	</g>
	<g>
		<g>
			<g>
				<path class="s1" d="m350.2 31.6v-24.3h10.3q3.9 0 6.9 1.5 2.9 1.5 4.5 4.3 1.7 2.7 1.7 6.4 0 3.6-1.7 6.3-1.6 2.8-4.5 4.3-3 1.5-6.9 1.5zm7-6.3h3.1q2.8 0 4.5-1.6 1.6-1.6 1.6-4.2 0-2.7-1.6-4.3-1.7-1.6-4.5-1.6h-3.1z"/>
			</g>
		</g>
	</g>
	<g>
		<g>
			<g>
				<path class="s1" d="m377.3 31.6v-24.3h16.7v5.7h-9.7v3.5h8.8v5.6h-8.8v3.8h10.1v5.7z"/>
			</g>
		</g>
	</g>
	<g>
		<g>
			<g>
				<path class="s1" d="m407.2 32.1q-4.7 0-7.4-2.2-2.6-2.2-2.6-6.2h6.8q0 1.4 0.8 2.2 0.8 0.8 2.3 0.8 1.3 0 2.1-0.5 0.7-0.5 0.7-1.4 0-2-4.4-2.9-8.1-1.6-8.1-7.7 0-3.4 2.4-5.4 2.5-2 6.8-2 3 0 5.2 1 2.2 1 3.4 2.9 1.2 1.8 1.2 4.3h-6.6q0-1.4-0.8-2.1-0.8-0.7-2.2-0.7-1.3 0-2 0.5-0.7 0.5-0.7 1.4 0 0.9 1 1.5 0.9 0.7 3.3 1.2 4.4 0.9 6.4 2.8 2.1 1.9 2.1 4.9 0 3.6-2.6 5.6-2.5 2-7.1 2z"/>
			</g>
		</g>
	</g>
	<g>
		<g>
			<g>
				<path class="s1" d="m87.4 65.8v-19.4h4.4v15.3h8.5v4.1z"/>
			</g>
		</g>
	</g>
	<g>
		<g>
			<g>
				<path class="s1" d="m134.7 66.2q-3 0-5.3-1.3-2.4-1.3-3.7-3.6-1.3-2.2-1.3-5.2 0-3 1.3-5.3 1.3-2.2 3.7-3.5 2.3-1.3 5.3-1.3 3.1 0 5.4 1.3 2.3 1.3 3.7 3.5 1.3 2.3 1.3 5.3 0 3-1.3 5.2-1.4 2.3-3.7 3.6-2.3 1.3-5.4 1.3zm-5.8-10.1q0 1.7 0.7 3.1 0.8 1.3 2.1 2 1.3 0.8 3 0.8 1.8 0 3.1-0.8 1.3-0.7 2-2 0.8-1.4 0.8-3.1 0-1.8-0.8-3.1-0.7-1.3-2-2.1-1.3-0.7-3.1-0.7-1.7 0-3 0.7-1.3 0.8-2.1 2.1-0.7 1.3-0.7 3.1z"/>
			</g>
		</g>
	</g>
	<g>
		<g>
			<g>
				<path class="s1" d="m179.8 66.2q-2.9 0-5.3-1.3-2.3-1.3-3.6-3.6-1.3-2.2-1.3-5.2 0-3 1.3-5.3 1.3-2.2 3.6-3.5 2.3-1.3 5.3-1.3 2.3 0 4.3 0.8 2 0.9 3.4 2.4 1.4 1.5 2 3.5h-4.8q-0.7-1.2-1.9-2-1.3-0.7-3-0.7-1.7 0-3 0.8-1.3 0.8-2 2.2-0.7 1.3-0.7 3.1 0 1.7 0.7 3.1 0.7 1.3 2 2.1 1.3 0.8 3.1 0.8 2.1 0 3.5-1.1 1.5-1 1.9-2.8h-6.3v-3.4h10.9q0.2 2.5-0.5 4.5-0.6 2.1-2 3.7-1.3 1.5-3.2 2.3-2 0.9-4.4 0.9z"/>
			</g>
		</g>
	</g>
	<g>
		<g>
			<g>
				<path class="s1" d="m215.6 65.8v-19.4h4.4v19.4z"/>
			</g>
		</g>
	</g>
	<g>
		<g>
			<g>
				<path class="s1" d="m253.6 66.2q-2.5 0-4.2-0.8-1.8-0.8-2.7-2.3-1-1.5-1-3.5h4.3q0 1.4 1 2.2 1 0.7 2.6 0.7 1.4 0 2.2-0.5 0.8-0.5 0.8-1.5 0-1-1-1.7-1-0.6-3-1.1-3.4-0.7-5.1-2.1-1.6-1.5-1.6-3.9 0-2.6 1.9-4.2 2-1.5 5.3-1.5 2.3 0 4 0.8 1.7 0.8 2.6 2.2 1 1.4 1 3.4h-4.3q0-1.3-0.8-2.1-0.9-0.7-2.4-0.7-1.4 0-2.2 0.5-0.8 0.6-0.8 1.5 0 0.9 0.9 1.5 0.9 0.6 3.1 1.2 3.6 0.8 5.2 2.3 1.6 1.4 1.6 3.7 0 2.8-2 4.3-1.9 1.6-5.4 1.6z"/>
			</g>
		</g>
	</g>
	<g>
		<g>
			<g>
				<path class="s1" d="m291.4 65.8v-15.3h-6.1v-4.1h16.7v4.1h-6.1v15.3z"/>
			</g>
		</g>
	</g>
	<g>
		<g>
			<g>
				<path class="s1" d="m327.3 65.8v-19.4h4.4v19.4z"/>
			</g>
		</g>
	</g>
	<g>
		<g>
			<g>
				<path class="s1" d="m368.5 66.2q-2.9 0-5.2-1.3-2.3-1.3-3.6-3.6-1.3-2.2-1.3-5.2 0-3 1.3-5.3 1.3-2.2 3.6-3.5 2.2-1.3 5.2-1.3 2.4 0 4.5 0.9 2 1 3.4 2.7 1.4 1.7 2 4h-4.6q-0.5-1.6-1.9-2.5-1.4-0.9-3.3-0.9-1.6 0-2.9 0.7-1.3 0.8-2 2.1-0.8 1.3-0.8 3.1 0 1.7 0.8 3.1 0.7 1.3 2 2 1.2 0.8 2.9 0.8 1.9 0 3.3-1 1.5-1 2.1-2.7h4.5q-0.5 2.4-1.9 4.2-1.4 1.7-3.5 2.7-2 1-4.6 1z"/>
			</g>
		</g>
	</g>
	<g>
		<g>
			<g>
				<path class="s1" d="m407.9 66.2q-2.4 0-4.2-0.8-1.8-0.8-2.7-2.3-1-1.5-1-3.5h4.4q0 1.4 0.9 2.2 1 0.7 2.6 0.7 1.4 0 2.2-0.5 0.8-0.5 0.8-1.5 0-1-1-1.7-1-0.6-3-1.1-3.4-0.7-5.1-2.1-1.6-1.5-1.6-3.9 0-2.6 1.9-4.2 2-1.5 5.3-1.5 2.3 0 4 0.8 1.7 0.8 2.6 2.2 1 1.4 1 3.4h-4.3q0-1.3-0.8-2.1-0.9-0.7-2.4-0.7-1.4 0-2.2 0.5-0.8 0.6-0.8 1.5 0 0.9 0.9 1.5 0.9 0.6 3.1 1.2 3.6 0.8 5.2 2.3 1.6 1.4 1.6 3.7 0 2.8-1.9 4.3-2 1.6-5.5 1.6z"/>
			</g>
		</g>
	</g>
</svg>